<?xml version="1.0" encoding="UTF-8"?>
<svg width="13px" height="13px" viewBox="0 0 13 13" version="1.1" xmlns="http://www.w3.org/2000/svg" xmlns:xlink="http://www.w3.org/1999/xlink">
    <!-- Generator: Sketch 49.3 (51167) - http://www.bohemiancoding.com/sketch -->
    <title>attachment copy</title>
    <desc>Created with Sketch.</desc>
    <defs></defs>
    <g id="Page-1" stroke="none" stroke-width="1" fill="none" fill-rule="evenodd">
        <g id="图片展开" transform="translate(-411.000000, -431.000000)" fill="#B8B7C1">
            <g id="Group-6" transform="translate(340.000000, 233.000000)">
                <g id="attachment-copy" transform="translate(77.778175, 204.778175) rotate(-45.000000) translate(-77.778175, -204.778175) translate(70.778175, 200.778175)">
                    <path d="M3.85,8 C1.75,8 0,6.18181818 0,4 C0,1.81818182 1.75,0 3.85,0 L11.2,0 C12.74,0 14,1.30909091 14,2.90909091 C14,4.50909091 12.74,5.81818182 11.2,5.81818182 L5.25,5.81818182 C4.27,5.81818182 3.5,5.01818182 3.5,4 C3.5,2.98181818 4.27,2.18181818 5.25,2.18181818 L10.5,2.18181818 L10.5,3.27272727 L5.25,3.27272727 C4.83,3.27272727 4.55,3.56363636 4.55,4 C4.55,4.43636364 4.83,4.72727273 5.25,4.72727273 L11.2,4.72727273 C12.18,4.72727273 12.95,3.92727273 12.95,2.90909091 C12.95,1.89090909 12.18,1.09090909 11.2,1.09090909 L3.85,1.09090909 C2.31,1.09090909 1.05,2.4 1.05,4 C1.05,5.6 2.31,6.90909091 3.85,6.90909091 L10.5,6.90909091 L10.5,8 L3.85,8 L3.85,8 Z" id="Shape"></path>
                </g>
            </g>
        </g>
    </g>
</svg>